Title                            : Sucker Punch
Year                             : 2011
Genre                            : Action | Adventure | Fantasy
iMDB URL                         : http://www.imdb.com/title/tt0978764/

Complete name                    : Sucker.Punch.2011((Non.Stop.Action))BDRIP.1080P.H264-ZEKTORM.mp4
Format                           : MPEG-4
Format profile                   : Base Media
Codec ID                         : isom
File size                        : 2.72 GiB
Duration                         : 49mn 14s (Edited Action Scenes)
Overall bit rate                 : 7914 Kbps

Video
ID                               : 1
Format                           : AVC
Format/Info                      : Advanced Video Codec
Format profile                   : High@L4.0
Format settings, CABAC           : Yes
Format settings, ReFrames        : 5 frames
Codec ID                         : avc1
Codec ID/Info                    : Advanced Video Coding
Duration                         : 49mn 14s
Bit rate mode                    : Variable
Bit rate                         : 7501 Kbps
Width                            : 1920 pixels
Height                           : 800 pixels
Display aspect ratio             : 2.400
Frame rate mode                  : Constant
Frame rate                       : 23.976 fps
Resolution                       : 24 bits
Colorimetry                      : 4:2:0
Scan type                        : Progressive
Bits/(Pixel*Frame)               : 0.204
Stream size                      : 2.57 GiB (94%)
Title                            : Video
Writing library                  : x264

Audio
ID                               : 2
Format                           : AAC
Format/Info                      : Advanced Audio Codec
Format version                   : Version 4
Format profile                   : LC
Format settings, SBR             : No
Codec ID                         : 40
Duration                         : 49mn 14s
Bit rate mode                    : Variable
Bit rate                         : 445 Kbps
Maximum bit rate                 : 599 Kbps
Channel(s)                       : 6 channels
Channel positions                : Front: L C R, Rear: L R, LFE
Sampling rate                    : 48.0 KHz
Resolution                       : 16 bits
Stream size                      : 156 MiB (6%)
Language                         : English


Screenshots:

[img]http://img52.imageshack.us/img52/673/snapsp1.png[/img]

[img]http://img62.imageshack.us/img62/6373/snapsp2.png[/img]

[img]http://img705.imageshack.us/img705/6691/snapsp3.png[/img]

[img]http://img696.imageshack.us/img696/7614/snapsp4.png[/img]
